<svg width="868" height="108" viewBox="0 0 868 108" fill="none" xmlns="http://www.w3.org/2000/svg">
<path d="M61.68 98.504V107H0.0480005V100.232L47.712 39.896H0.912V31.256H60.816V38.024L13.152 98.504H61.68ZM114.059 30.68C123.947 30.68 131.531 33.176 136.811 38.168C142.091 43.064 144.731 50.36 144.731 60.056V107H134.939V95.192C132.635 99.128 129.227 102.2 124.715 104.408C120.299 106.616 115.019 107.72 108.875 107.72C100.427 107.72 93.7069 105.704 88.7149 101.672C83.7229 97.64 81.2269 92.312 81.2269 85.688C81.2269 79.256 83.5309 74.072 88.1389 70.136C92.8429 66.2 100.283 64.232 110.459 64.232H134.507V59.624C134.507 53.096 132.683 48.152 129.035 44.792C125.387 41.336 120.059 39.608 113.051 39.608C108.251 39.608 103.643 40.424 99.2269 42.056C94.8109 43.592 91.0189 45.752 87.8509 48.536L83.2429 40.904C87.0829 37.64 91.6909 35.144 97.0669 33.416C102.443 31.592 108.107 30.68 114.059 30.68ZM110.459 99.656C116.219 99.656 121.163 98.36 125.291 95.768C129.419 93.08 132.491 89.24 134.507 84.248V71.864H110.747C97.7869 71.864 91.3069 76.376 91.3069 85.4C91.3069 89.816 92.9869 93.32 96.3469 95.912C99.7069 98.408 104.411 99.656 110.459 99.656ZM178.26 31.256H188.484V107H178.26V31.256ZM183.444 14.696C181.332 14.696 179.556 13.976 178.116 12.536C176.676 11.096 175.956 9.368 175.956 7.352C175.956 5.432 176.676 3.752 178.116 2.31199C179.556 0.871993 181.332 0.151994 183.444 0.151994C185.556 0.151994 187.332 0.871993 188.772 2.31199C190.212 3.65599 190.932 5.28799 190.932 7.208C190.932 9.32 190.212 11.096 188.772 12.536C187.332 13.976 185.556 14.696 183.444 14.696ZM291.812 0.151994V107H282.02V92.024C278.948 97.112 274.868 101 269.78 103.688C264.788 106.376 259.124 107.72 252.788 107.72C245.684 107.72 239.252 106.088 233.492 102.824C227.732 99.56 223.22 95 219.956 89.144C216.692 83.288 215.06 76.616 215.06 69.128C215.06 61.64 216.692 54.968 219.956 49.112C223.22 43.256 227.732 38.744 233.492 35.576C239.252 32.312 245.684 30.68 252.788 30.68C258.932 30.68 264.452 31.976 269.348 34.568C274.34 37.064 278.42 40.76 281.588 45.656V0.151994H291.812ZM253.652 98.648C258.932 98.648 263.684 97.448 267.908 95.048C272.228 92.552 275.588 89.048 277.988 84.536C280.484 80.024 281.732 74.888 281.732 69.128C281.732 63.368 280.484 58.232 277.988 53.72C275.588 49.208 272.228 45.752 267.908 43.352C263.684 40.856 258.932 39.608 253.652 39.608C248.276 39.608 243.428 40.856 239.108 43.352C234.884 45.752 231.524 49.208 229.028 53.72C226.628 58.232 225.428 63.368 225.428 69.128C225.428 74.888 226.628 80.024 229.028 84.536C231.524 89.048 234.884 92.552 239.108 95.048C243.428 97.448 248.276 98.648 253.652 98.648ZM352.542 30.68C362.43 30.68 370.014 33.176 375.294 38.168C380.574 43.064 383.214 50.36 383.214 60.056V107H373.422V95.192C371.118 99.128 367.71 102.2 363.198 104.408C358.782 106.616 353.502 107.72 347.358 107.72C338.91 107.72 332.19 105.704 327.198 101.672C322.206 97.64 319.71 92.312 319.71 85.688C319.71 79.256 322.014 74.072 326.622 70.136C331.326 66.2 338.766 64.232 348.942 64.232H372.99V59.624C372.99 53.096 371.166 48.152 367.518 44.792C363.87 41.336 358.542 39.608 351.534 39.608C346.734 39.608 342.126 40.424 337.71 42.056C333.294 43.592 329.502 45.752 326.334 48.536L321.726 40.904C325.566 37.64 330.174 35.144 335.55 33.416C340.926 31.592 346.59 30.68 352.542 30.68ZM348.942 99.656C354.702 99.656 359.646 98.36 363.774 95.768C367.902 93.08 370.974 89.24 372.99 84.248V71.864H349.23C336.27 71.864 329.79 76.376 329.79 85.4C329.79 89.816 331.47 93.32 334.83 95.912C338.19 98.408 342.894 99.656 348.942 99.656ZM444.823 68.984L426.967 85.4V107H416.743V0.151994H426.967V72.584L472.183 31.256H484.855L452.455 62.216L487.879 107H475.351L444.823 68.984ZM547.58 30.68C557.084 30.68 564.62 33.464 570.188 39.032C575.852 44.504 578.684 52.52 578.684 63.08V107H568.46V64.088C568.46 56.216 566.492 50.216 562.556 46.088C558.62 41.96 553.004 39.896 545.708 39.896C537.548 39.896 531.068 42.344 526.268 47.24C521.564 52.04 519.212 58.712 519.212 67.256V107H508.988V0.151994H519.212V44.504C521.996 40.088 525.836 36.68 530.732 34.28C535.628 31.88 541.244 30.68 547.58 30.68ZM652.089 102.392C650.169 104.12 647.769 105.464 644.889 106.424C642.105 107.288 639.177 107.72 636.105 107.72C629.001 107.72 623.529 105.8 619.689 101.96C615.849 98.12 613.929 92.696 613.929 85.688V39.896H600.393V31.256H613.929V14.696H624.153V31.256H647.193V39.896H624.153V85.112C624.153 89.624 625.257 93.08 627.465 95.48C629.769 97.784 633.033 98.936 637.257 98.936C639.369 98.936 641.385 98.6 643.305 97.928C645.321 97.256 647.049 96.296 648.489 95.048L652.089 102.392ZM739.741 72.296H676.381C676.957 80.168 679.981 86.552 685.453 91.448C690.925 96.248 697.837 98.648 706.189 98.648C710.893 98.648 715.213 97.832 719.149 96.2C723.085 94.472 726.493 91.976 729.373 88.712L735.133 95.336C731.773 99.368 727.549 102.44 722.461 104.552C717.469 106.664 711.949 107.72 705.901 107.72C698.125 107.72 691.213 106.088 685.165 102.824C679.213 99.464 674.557 94.856 671.197 89C667.837 83.144 666.157 76.52 666.157 69.128C666.157 61.736 667.741 55.112 670.909 49.256C674.173 43.4 678.589 38.84 684.157 35.576C689.821 32.312 696.157 30.68 703.165 30.68C710.173 30.68 716.461 32.312 722.029 35.576C727.597 38.84 731.965 43.4 735.133 49.256C738.301 55.016 739.885 61.64 739.885 69.128L739.741 72.296ZM703.165 39.464C695.869 39.464 689.725 41.816 684.733 46.52C679.837 51.128 677.053 57.176 676.381 64.664H730.093C729.421 57.176 726.589 51.128 721.597 46.52C716.701 41.816 710.557 39.464 703.165 39.464ZM776.247 46.088C778.647 41 782.199 37.16 786.903 34.568C791.703 31.976 797.607 30.68 804.615 30.68V40.616L802.167 40.472C794.199 40.472 787.959 42.92 783.447 47.816C778.935 52.712 776.679 59.576 776.679 68.408V107H766.455V31.256H776.247V46.088ZM838.679 46.088C841.079 41 844.631 37.16 849.335 34.568C854.135 31.976 860.039 30.68 867.047 30.68V40.616L864.599 40.472C856.631 40.472 850.391 42.92 845.879 47.816C841.367 52.712 839.111 59.576 839.111 68.408V107H828.887V31.256H838.679V46.088Z" fill="black"/>
</svg>
